<svg xmlns="http://www.w3.org/2000/svg" viewBox="0 0 64 64" role="img" aria-label="Bertie boat icon">
  <rect width="64" height="64" rx="14" fill="#050505"/>
  <path d="M15 39h34l-5.3 8.4c-.8 1.3-2.2 2.1-3.8 2.1H24.1c-1.6 0-3-.8-3.8-2.1L15 39Z" fill="#fffaf0"/>
  <path d="M23 33.5V21.2c0-1.5 1.2-2.7 2.7-2.7h12.6c1.5 0 2.7 1.2 2.7 2.7v12.3" fill="#0b7895"/>
  <path d="M27.5 24h9v9.5h-9z" fill="#ffc857"/>
  <path d="M18 35.5h28" fill="none" stroke="#fffaf0" stroke-width="5" stroke-linecap="round"/>
  <path d="M12 52c3.4 0 3.4-2 6.8-2s3.4 2 6.8 2 3.4-2 6.8-2 3.4 2 6.8 2 3.4-2 6.8-2 3.4 2 6.8 2" fill="none" stroke="#f25f4c" stroke-width="3.5" stroke-linecap="round"/>
</svg>
